<svg version="1.1" xmlns="http://www.w3.org/2000/svg" viewBox="0 0 1054.796875 581.4416046142578" width="2109.59375" height="1162.8832092285156">
  <!-- svg-source:excalidraw -->
  
  <defs>
    <style>
      @font-face {
        font-family: "Virgil";
        src: url("https://excalidraw.com/Virgil.woff2");
      }
      @font-face {
        font-family: "Cascadia";
        src: url("https://excalidraw.com/Cascadia.woff2");
      }
    </style>
  </defs>
  <rect x="0" y="0" width="1054.796875" height="581.4416046142578" fill="#ffffff"></rect><g stroke-linecap="round" transform="translate(17.7303466796875 132.36192321777344) rotate(0 131.51748657226562 142.5077667236328)"><path d="M0.09 -1.23 C81.37 -3.46, 163.64 -3.34, 263.5 -1.4 M0.78 -0.02 C71.29 0.51, 142.28 1.43, 263.82 0.45 M263.68 -0.06 C262 96.45, 261.63 193.97, 263.22 286.12 M262.96 -0.73 C263.89 78, 263.78 157.47, 263.67 285.64 M264.57 283.74 C199.79 284.28, 136.6 285.2, 0.2 283.48 M263.05 284.62 C176.85 283.28, 89.1 283.06, 0.62 285.26 M0.45 286.18 C0.23 198.53, 0.44 108.96, 0.34 -0.98 M0.2 284.79 C-1.84 194.46, -1.83 104.79, -0.65 -0.04" stroke="#000000" stroke-width="1" fill="none"></path></g><g transform="translate(82.683837890625 157.55128479003906) rotate(0 68.5 12.5)"><text x="0" y="18" font-family="Virgil, Segoe UI Emoji" font-size="20px" fill="#000000" text-anchor="start" style="white-space: pre;" direction="ltr">Project setup</text></g><g stroke-linecap="round" transform="translate(351.71002197265625 127.89356994628906) rotate(0 130.31167602539062 142.30609130859375)"><path d="M-1.03 0.26 C103.44 0.65, 205.45 -0.94, 259.36 -0.89 M-0.04 -0.12 C57.52 2.06, 116.75 2.36, 261.32 0.2 M261.84 -0.06 C262.08 72.49, 260.57 146.61, 261.13 284.95 M260.91 -0.04 C259.38 85.57, 260.22 170.6, 260.62 284.29 M259.22 285.89 C176.25 285.87, 96.53 283.69, 1.54 284.89 M260.24 285.01 C191.33 286.13, 122.17 286.3, 0.52 284.38 M0.83 284.47 C1.67 220.16, -0.3 154.26, 1.41 0.63 M-0.56 284.82 C-1.91 189, -1.53 93.67, -0.59 0.53" stroke="#000000" stroke-width="1" fill="none"></path></g><g transform="translate(439.1663818359375 149.2766876220703) rotate(0 45 12.5)"><text x="0" y="18" font-family="Virgil, Segoe UI Emoji" font-size="20px" fill="#000000" text-anchor="start" style="white-space: pre;" direction="ltr">Back end</text></g><g stroke-linecap="round" transform="translate(658.52685546875 125.53343200683594) rotate(0 187.88165283203125 144.8296356201172)"><path d="M0.13 1.2 C148.01 -2.34, 294.32 -1.52, 374.7 -0.54 M-0.37 0.38 C86.19 -2.1, 173.08 -1.66, 375.85 -0.38 M376.65 -0.51 C378.02 66.65, 377.98 131.79, 377.15 289.67 M375.74 -0.05 C376.38 66.26, 376.39 134, 375.59 289.45 M376.59 288.53 C289.72 288.81, 206.73 288.55, 0.49 289.02 M376.17 289.11 C264.42 289.47, 152.67 290.18, 0.1 290.04 M1.15 289.35 C-0.12 224.58, 1.22 155.46, -0.17 -0.21 M0.41 290.08 C-0.37 181.12, -0.18 72.03, 0.45 -0.17" stroke="#000000" stroke-width="1" fill="none"></path></g><g transform="translate(752.683837890625 136.55128479003906) rotate(0 48.5 12.5)"><text x="0" y="18" font-family="Virgil, Segoe UI Emoji" font-size="20px" fill="#000000" text-anchor="start" style="white-space: pre;" direction="ltr">Front End</text></g><g stroke-linecap="round" transform="translate(22.49066162109375 456.65895080566406) rotate(0 505.1908264160156 57.391326904296875)"><path d="M0.59 0.14 C211.75 0.99, 423.22 0.58, 1010.28 0.23 M-0.04 -0.11 C202.42 0.72, 405.26 0.76, 1010.64 -0.22 M1009.03 -0.91 C1008.57 28.01, 1010.17 56.6, 1009.93 114.06 M1011.13 -0.17 C1011.75 30.46, 1011.31 60.59, 1011.21 113.84 M1009.8 114.21 C631.54 112.54, 252.96 112.08, 0.06 114.9 M1010.54 115.12 C785.15 112.8, 560.29 112.89, -0.19 115.16 M1.36 115.55 C-2.52 74.07, -1.77 32.24, 0.87 0.08 M-0.85 113.87 C1.13 69.8, 1.05 23.43, 0.24 0.26" stroke="#000000" stroke-width="1" fill="none"></path></g><g transform="translate(357.683837890625 482.55128479003906) rotate(0 108 12.5)"><text x="0" y="18" font-family="Virgil, Segoe UI Emoji" font-size="20px" fill="#000000" text-anchor="start" style="white-space: pre;" direction="ltr">Test and deployment </text></g><g transform="translate(37.53955078125 219.4826202392578) rotate(0 110 50)"><text x="0" y="18" font-family="Virgil, Segoe UI Emoji" font-size="20px" fill="#000000" text-anchor="start" style="white-space: pre;" direction="ltr">- github set up</text><text x="0" y="43" font-family="Virgil, Segoe UI Emoji" font-size="20px" fill="#000000" text-anchor="start" style="white-space: pre;" direction="ltr">- creating proj folders</text><text x="0" y="68" font-family="Virgil, Segoe UI Emoji" font-size="20px" fill="#000000" text-anchor="start" style="white-space: pre;" direction="ltr">- uml </text><text x="0" y="93" font-family="Virgil, Segoe UI Emoji" font-size="20px" fill="#000000" text-anchor="start" style="white-space: pre;" direction="ltr">- wire framing </text></g><g stroke-linecap="round"><g transform="translate(275.1504605625512 277.14357336882046) rotate(0 37.10269545652403 -2.015836579494561)"><path d="M-0.87 -0.38 C11.46 -0.76, 62.53 -1.61, 75.07 -2.04 M0.88 -1.62 C12.95 -2.34, 62.09 -3.66, 74.16 -3.66" stroke="#000000" stroke-width="1" fill="none"></path></g><g transform="translate(275.1504605625512 277.14357336882046) rotate(0 37.10269545652403 -2.015836579494561)"><path d="M45.51 7.18 C58.74 2.05, 68.2 -2.05, 76.11 -3.73 M47.1 6.34 C56.96 3.6, 67.53 -1.57, 73.31 -2.68" stroke="#000000" stroke-width="1" fill="none"></path></g><g transform="translate(275.1504605625512 277.14357336882046) rotate(0 37.10269545652403 -2.015836579494561)"><path d="M45.19 -13.34 C58.58 -10.42, 68.17 -6.46, 76.11 -3.73 M46.77 -14.17 C56.62 -9.2, 67.31 -6.65, 73.31 -2.68" stroke="#000000" stroke-width="1" fill="none"></path></g></g><g stroke-linecap="round"><g transform="translate(614.3361670657503 307.94313374250936) rotate(0 22.51615601878268 0.6943211345590043)"><path d="M1.01 0.98 C8.55 1.05, 37.48 -0.03, 44.96 -0.15 M0.07 0.44 C7.49 0.78, 36.41 1.84, 43.99 1.47" stroke="#000000" stroke-width="1" fill="none"></path></g><g transform="translate(614.3361670657503 307.94313374250936) rotate(0 22.51615601878268 0.6943211345590043)"><path d="M24.48 9.11 C28.91 8.38, 35.33 3.66, 43.01 1.48 M23.17 9.38 C27.04 7.06, 31.17 6.83, 44.08 1.67" stroke="#000000" stroke-width="1" fill="none"></path></g><g transform="translate(614.3361670657503 307.94313374250936) rotate(0 22.51615601878268 0.6943211345590043)"><path d="M24.47 -6.28 C28.83 -2.82, 35.25 -3.35, 43.01 1.48 M23.16 -6.01 C27.05 -5.06, 31.18 -2.01, 44.08 1.67" stroke="#000000" stroke-width="1" fill="none"></path></g></g><g stroke-linecap="round"><g transform="translate(493.42647643252394 414.91678791866093) rotate(0 0.29019779797386036 19.00273054099395)"><path d="M-0.01 -0.43 C0.03 6.02, -0.23 31.93, -0.34 38.47 M-1.47 -1.7 C-0.99 4.92, 1.52 32.75, 2.05 39.71" stroke="#000000" stroke-width="1" fill="none"></path></g><g transform="translate(493.42647643252394 414.91678791866093) rotate(0 0.29019779797386036 19.00273054099395)"><path d="M-6.84 20.98 C-5.05 24.96, -2.42 32.18, 0.14 40.38 M-5.27 21.49 C-3.62 26.92, -2.89 30.53, 2.73 38.95" stroke="#000000" stroke-width="1" fill="none"></path></g><g transform="translate(493.42647643252394 414.91678791866093) rotate(0 0.29019779797386036 19.00273054099395)"><path d="M6.47 19.86 C4.88 24.12, 4.15 31.62, 0.14 40.38 M8.04 20.37 C6.62 26.17, 4.27 30.05, 2.73 38.95" stroke="#000000" stroke-width="1" fill="none"></path></g></g><g stroke-linecap="round"><g transform="translate(823.5039003452889 416.5139590034869) rotate(0 -0.12512083628575965 17.497476646006135)"><path d="M-0.9 -0.22 C-1.07 5.85, -1.17 30.16, -1.31 36.37 M0.83 -1.38 C1.07 4.31, 1.09 28.28, 1.04 34.38" stroke="#000000" stroke-width="1" fill="none"></path></g><g transform="translate(823.5039003452889 416.5139590034869) rotate(0 -0.12512083628575965 17.497476646006135)"><path d="M-5.42 16.37 C-3.04 20.44, -0.3 26, 1.84 33.35 M-5.87 17.14 C-3.06 23.08, -0.78 28.01, 1.28 34.57" stroke="#000000" stroke-width="1" fill="none"></path></g><g transform="translate(823.5039003452889 416.5139590034869) rotate(0 -0.12512083628575965 17.497476646006135)"><path d="M6.93 16.4 C5.9 20.36, 5.23 25.92, 1.84 33.35 M6.49 17.16 C5.19 23.08, 3.38 28, 1.28 34.57" stroke="#000000" stroke-width="1" fill="none"></path></g></g><g stroke-linecap="round"><g transform="translate(791.2469548960123 450.65564509648385) rotate(0 0.06188095891388912 -18.69008352472224)"><path d="M-0.79 1.06 C-1.05 -5.11, -0.45 -30.3, -0.38 -36.72 M0.99 0.57 C0.56 -5.96, -0.58 -32.34, -0.87 -38.44" stroke="#000000" stroke-width="1" fill="none"></path></g><g transform="translate(791.2469548960123 450.65564509648385) rotate(0 0.06188095891388912 -18.69008352472224)"><path d="M7.99 -19.76 C4.63 -26.68, 0.71 -33.07, -0.89 -37.99 M6.32 -20.19 C5.68 -25.53, 2.43 -27.98, -1.74 -37.95" stroke="#000000" stroke-width="1" fill="none"></path></g><g transform="translate(791.2469548960123 450.65564509648385) rotate(0 0.06188095891388912 -18.69008352472224)"><path d="M-4.82 -19.18 C-3.13 -26.24, -1.99 -32.86, -0.89 -37.99 M-6.49 -19.62 C-4.57 -25.05, -5.26 -27.61, -1.74 -37.95" stroke="#000000" stroke-width="1" fill="none"></path></g></g><g transform="translate(363.826904296875 202.87681579589844) rotate(0 119.5 75)"><text x="0" y="18" font-family="Virgil, Segoe UI Emoji" font-size="20px" fill="#000000" text-anchor="start" style="white-space: pre;" direction="ltr">- installing package</text><text x="0" y="43" font-family="Virgil, Segoe UI Emoji" font-size="20px" fill="#000000" text-anchor="start" style="white-space: pre;" direction="ltr">- DB setup</text><text x="0" y="68" font-family="Virgil, Segoe UI Emoji" font-size="20px" fill="#000000" text-anchor="start" style="white-space: pre;" direction="ltr">- model creation </text><text x="0" y="93" font-family="Virgil, Segoe UI Emoji" font-size="20px" fill="#000000" text-anchor="start" style="white-space: pre;" direction="ltr">- test model-DB</text><text x="0" y="118" font-family="Virgil, Segoe UI Emoji" font-size="20px" fill="#000000" text-anchor="start" style="white-space: pre;" direction="ltr">- creating server-routes</text><text x="0" y="143" font-family="Virgil, Segoe UI Emoji" font-size="20px" fill="#000000" text-anchor="start" style="white-space: pre;" direction="ltr">- CRUD test </text></g><g transform="translate(687.683837890625 169.55128479003906) rotate(0 169.5 50)"><text x="0" y="18" font-family="Virgil, Segoe UI Emoji" font-size="20px" fill="#000000" text-anchor="start" style="white-space: pre;" direction="ltr">- creating  a react project folder</text><text x="0" y="43" font-family="Virgil, Segoe UI Emoji" font-size="20px" fill="#000000" text-anchor="start" style="white-space: pre;" direction="ltr">- installing packages </text><text x="0" y="68" font-family="Virgil, Segoe UI Emoji" font-size="20px" fill="#000000" text-anchor="start" style="white-space: pre;" direction="ltr">- creating components </text><text x="0" y="93" font-family="Virgil, Segoe UI Emoji" font-size="20px" fill="#000000" text-anchor="start" style="white-space: pre;" direction="ltr">- writting the bussiness logic </text></g><g transform="translate(393.683837890625 513.5512847900391) rotate(0 61 25)"><text x="0" y="18" font-family="Virgil, Segoe UI Emoji" font-size="20px" fill="#000000" text-anchor="start" style="white-space: pre;" direction="ltr">- jest test </text><text x="0" y="43" font-family="Virgil, Segoe UI Emoji" font-size="20px" fill="#000000" text-anchor="start" style="white-space: pre;" direction="ltr">- heroku</text></g><g stroke-linecap="round" transform="translate(10 10) rotate(0 517.3984375 27.56035614013672)"><path d="M0.54 -0.44 C340.02 3.51, 680.18 3.19, 1034.41 0.42 M0.29 0 C365.7 -2.33, 732.13 -2.62, 1035.02 -0.1 M1033.33 -1.6 C1033.37 16.73, 1034.79 33.25, 1035.59 53.99 M1035.05 0.63 C1034.88 18.66, 1033.89 38.75, 1033.89 55.05 M1035.48 54.45 C715.61 51.01, 394.61 50.62, -0.29 54.91 M1035.07 55.3 C638.35 58.71, 240.74 58.38, 0.13 54.99 M-0.92 54.8 C-1.41 37.53, 0.67 24.36, -0.3 -1.2 M0.87 56.01 C0.2 40.28, 1.09 25.64, 0.12 0.63" stroke="#000000" stroke-width="1" fill="none"></path></g><g transform="translate(297.683837890625 25.550796508789062) rotate(0 100.5 12.5)"><text x="0" y="18" font-family="Virgil, Segoe UI Emoji" font-size="20px" fill="#000000" text-anchor="start" style="white-space: pre;" direction="ltr">BRAINSTRORMING </text></g></svg>